<svg width="374" height="298" viewBox="0 0 374 298" fill="none" xmlns="http://www.w3.org/2000/svg">
<path d="M353.158 110.146C342.967 93.2605 326.92 80.9955 307.969 75.6127C306.21 75.1135 304.406 74.6672 302.603 74.2848C285.999 70.7854 269.238 73.0192 254.573 79.7129C251.264 77.5771 247.332 76.3246 243.101 76.3246H139.06L92.6255 61.7298C81.4511 58.2172 68.5325 64.1123 63.7731 74.8969L63.1421 76.3246H42.5448C30.8297 76.3246 21.3334 85.8209 21.3334 97.5378V171.075L10.547 195.516C7.17936 203.146 8.72756 211.528 14.5097 216.969L21.3334 223.393V228.567C21.3334 236.856 26.1607 244.386 33.6926 247.846L60.2623 260.044L94.6616 292.433C99.1215 296.633 105.559 298.555 112.183 297.665L135.389 294.542L138.131 295.802C143.946 298.473 150.653 298.375 156.388 295.538L167.003 290.29L223.182 282.731C225.572 282.409 227.874 281.727 230.026 280.757C231.383 281.524 232.825 282.164 234.37 282.605L261.644 290.354C268.643 292.342 276.037 290.323 281.115 285.552C285.277 283.692 288.588 280.123 289.895 275.516C290.511 273.356 290.643 271.168 290.349 269.069C291.702 267.438 292.739 265.509 293.353 263.347C293.86 261.567 294.039 259.77 293.92 258.017C294.943 256.587 295.736 254.963 296.243 253.181C296.557 252.068 296.746 250.948 296.815 249.837C298.913 247.839 300.599 245.367 301.69 242.54C306.08 231.121 312.422 226.785 326.335 217.268L330.902 214.132C345.649 203.945 356.475 188.815 361.385 171.531C367.249 150.894 364.25 128.519 353.158 110.146Z" fill="#D3D5D6"/>
<path d="M251.302 41.5845L242.909 49.3989L279.214 64.5907L251.302 41.5845Z" fill="#D3D5D6"/>
<path d="M289.349 43.5244L276.597 45.8185L285.848 63.7526L289.349 43.5244Z" fill="#D3D5D6"/>
<path d="M305.541 37.827L293.922 62.7544L314.071 44.5717L305.541 37.827Z" fill="#D3D5D6"/>
<path d="M288.769 88.194L87.9828 25.0836C76.2546 21.3958 62.6977 27.5849 57.7028 38.9006L1.84548 165.483C-1.68786 173.491 -0.0643209 182.285 6.00225 187.996L90.1187 267.191C94.799 271.6 101.555 273.617 108.507 272.681L224.994 257.011C233.759 255.831 241.483 250.151 244.923 242.358L300.961 115.363C305.957 104.045 300.496 91.8818 288.769 88.194" fill="#01579B"/>
<path d="M245.896 40.4017H35.4253C23.1321 40.4017 13.1649 50.367 13.1649 62.664V200.168C13.1649 208.868 18.2314 216.771 26.1362 220.4L135.739 270.728C141.838 273.531 148.876 273.428 154.896 270.453L255.762 220.572C263.354 216.818 268.157 209.085 268.157 200.619V62.664C268.157 50.367 258.19 40.4017 245.896 40.4017" fill="#0288D1"/>
<path d="M32.07 132H25.3346V106.742C25.3346 102.508 27.3232 100.392 31.3003 100.392H34.8604C37.2018 100.392 38.8696 101.161 39.8638 102.701C40.794 101.161 42.4618 100.392 44.8673 100.392H48.4274C52.4045 100.392 54.3931 102.508 54.3931 106.742V132H47.6577V106.165C47.6577 105.908 47.5614 105.684 47.369 105.491C47.2086 105.299 47.0002 105.203 46.7436 105.203H44.1456C43.889 105.203 43.6645 105.299 43.4721 105.491C43.3117 105.684 43.2315 105.908 43.2315 106.165V132H36.4961V106.165C36.4961 105.908 36.3999 105.684 36.2075 105.491C36.0471 105.299 35.8386 105.203 35.5821 105.203H32.9841C32.7275 105.203 32.503 105.299 32.3106 105.491C32.1502 105.684 32.07 105.908 32.07 106.165V132ZM70.1837 108.041C74.1608 108.041 76.1493 110.158 76.1493 114.392V121.993H65.2283V126.9C65.2283 127.157 65.3085 127.381 65.4689 127.574C65.6613 127.766 65.8858 127.862 66.1424 127.862H68.7885C69.0451 127.862 69.2535 127.766 69.4139 127.574C69.6064 127.381 69.7026 127.157 69.7026 126.9V124.302H76.1493V126.13C76.1493 130.364 74.1608 132.481 70.1837 132.481H64.7472C60.7701 132.481 58.7816 130.364 58.7816 126.13V114.392C58.7816 110.158 60.7701 108.041 64.7472 108.041H70.1837ZM65.2283 117.759H69.7026V113.429C69.7026 113.173 69.6064 112.948 69.4139 112.756C69.2535 112.563 69.0451 112.467 68.7885 112.467H66.1424C65.8858 112.467 65.6613 112.563 65.4689 112.756C65.3085 112.948 65.2283 113.173 65.2283 113.429V117.759ZM100.857 108.041C104.834 108.041 106.823 110.158 106.823 114.392V132H100.376V113.622C100.376 113.365 100.28 113.141 100.087 112.948C99.9271 112.756 99.7186 112.66 99.462 112.66H97.3933C97.1367 112.66 96.9122 112.756 96.7197 112.948C96.5594 113.141 96.4792 113.365 96.4792 113.622V132H90.0324V113.622C90.0324 113.365 89.9362 113.141 89.7438 112.948C89.5834 112.756 89.3749 112.66 89.1183 112.66H87.0496C86.793 112.66 86.5685 112.756 86.3761 112.948C86.2157 113.141 86.1355 113.365 86.1355 113.622V132H79.6888V108.522H85.5582V109.725C86.5525 108.602 88.0599 108.041 90.0805 108.041H90.5135C92.887 108.041 94.5387 108.779 95.4689 110.254C96.4631 108.779 98.1149 108.041 100.424 108.041H100.857ZM128.864 114.392V126.13C128.864 130.364 126.875 132.481 122.898 132.481H117.462C113.484 132.481 111.496 130.364 111.496 126.13V114.392C111.496 110.158 113.484 108.041 117.462 108.041H122.898C126.875 108.041 128.864 110.158 128.864 114.392ZM122.417 127.477V112.996C122.417 112.74 122.321 112.515 122.128 112.323C121.968 112.13 121.759 112.034 121.503 112.034H118.857C118.6 112.034 118.376 112.13 118.183 112.323C118.023 112.515 117.943 112.74 117.943 112.996V127.477C117.943 127.734 118.023 127.959 118.183 128.151C118.376 128.343 118.6 128.44 118.857 128.44H121.503C121.759 128.44 121.968 128.343 122.128 128.151C122.321 127.959 122.417 127.734 122.417 127.477ZM143.256 108.041H144.506V114.295H141.331C140.241 114.295 139.695 114.857 139.695 115.979V132H133.249V108.522H139.118V110.783C140.048 108.955 141.427 108.041 143.256 108.041ZM153.933 105.587C153.26 106.261 152.442 106.598 151.48 106.598C150.518 106.598 149.684 106.261 148.978 105.587C148.272 104.882 147.92 104.048 147.92 103.086C147.92 102.091 148.272 101.258 148.978 100.584C149.684 99.8784 150.518 99.5256 151.48 99.5256C152.442 99.5256 153.26 99.8784 153.933 100.584C154.639 101.258 154.992 102.091 154.992 103.086C154.992 104.08 154.639 104.914 153.933 105.587ZM148.256 132V108.522H154.703V132H148.256ZM170.632 108.041C174.609 108.041 176.598 110.158 176.598 114.392V121.993H165.677V126.9C165.677 127.157 165.757 127.381 165.917 127.574C166.11 127.766 166.334 127.862 166.591 127.862H169.237C169.493 127.862 169.702 127.766 169.862 127.574C170.055 127.381 170.151 127.157 170.151 126.9V124.302H176.598V126.13C176.598 130.364 174.609 132.481 170.632 132.481H165.196C161.219 132.481 159.23 130.364 159.23 126.13V114.392C159.23 110.158 161.219 108.041 165.196 108.041H170.632ZM165.677 117.759H170.151V113.429C170.151 113.173 170.055 112.948 169.862 112.756C169.702 112.563 169.493 112.467 169.237 112.467H166.591C166.334 112.467 166.11 112.563 165.917 112.756C165.757 112.948 165.677 113.173 165.677 113.429V117.759ZM191.202 117.278C195.18 117.278 197.168 119.395 197.168 123.629V126.13C197.168 130.364 195.18 132.481 191.202 132.481H185.862C181.885 132.481 179.897 130.364 179.897 126.13V124.639H185.862V126.756C185.862 127.012 185.942 127.237 186.103 127.429C186.295 127.622 186.52 127.718 186.776 127.718H190.721C190.978 127.718 191.186 127.622 191.347 127.429C191.539 127.237 191.635 127.012 191.635 126.756V123.869C191.635 123.613 191.539 123.388 191.347 123.196C191.186 123.003 190.978 122.907 190.721 122.907H185.766C181.789 122.907 179.8 120.79 179.8 116.557V114.392C179.8 110.158 181.789 108.041 185.766 108.041H190.818C194.795 108.041 196.783 110.158 196.783 114.392V115.258H190.818V113.766C190.818 113.51 190.721 113.285 190.529 113.093C190.369 112.9 190.16 112.804 189.904 112.804H186.247C185.991 112.804 185.766 112.9 185.574 113.093C185.413 113.285 185.333 113.51 185.333 113.766V116.316C185.333 116.573 185.413 116.797 185.574 116.989C185.766 117.182 185.991 117.278 186.247 117.278H191.202Z" fill="white"/>
<path d="M120.922 172.031V188H112.121V147.323H120.922V164.361H127.901V147.323H136.703V188H127.901V172.031H120.922ZM157.526 147.323H166.328V180.33C166.328 185.862 163.729 188.629 158.532 188.629H150.736C145.539 188.629 142.94 185.862 142.94 180.33V147.323H151.742V181.084C151.742 181.419 151.847 181.713 152.056 181.964C152.308 182.216 152.601 182.342 152.936 182.342H156.331C156.667 182.342 156.939 182.216 157.149 181.964C157.4 181.713 157.526 181.419 157.526 181.084V147.323ZM192.217 165.744C194.941 166.708 196.304 168.929 196.304 172.408V179.701C196.304 185.234 193.705 188 188.508 188H172.35V147.323H188.005C193.202 147.323 195.801 150.089 195.801 155.622V159.331C195.801 162.684 194.606 164.822 192.217 165.744ZM185.804 153.296H181.152V164.172H185.804C186.14 164.172 186.412 164.047 186.622 163.795C186.873 163.544 186.999 163.25 186.999 162.915V154.553C186.999 154.218 186.873 153.924 186.622 153.673C186.412 153.422 186.14 153.296 185.804 153.296ZM187.502 180.707V171.591C187.502 171.256 187.376 170.962 187.125 170.711C186.915 170.459 186.643 170.333 186.307 170.333H181.152V181.964H186.307C186.643 181.964 186.915 181.839 187.125 181.587C187.376 181.336 187.502 181.042 187.502 180.707Z" fill="white"/>
<path d="M236.733 256.879C229.388 254.79 223.9 248.908 221.999 241.847C219.312 237.89 218.327 232.878 219.7 228.045C220.346 225.778 221.434 223.753 222.852 222.041C222.547 219.839 222.683 217.543 223.329 215.276C223.858 213.407 224.693 211.703 225.764 210.202C225.64 208.363 225.828 206.476 226.358 204.608C226.691 203.44 227.139 202.336 227.691 201.306C226.923 198.37 226.783 195.247 227.363 192.134C229.729 179.616 226.52 172.339 219.487 156.395C218.649 154.503 217.777 152.529 216.88 150.461C208.478 131.057 207.919 109.424 215.298 89.5275C229.205 52.0489 269.204 30.0088 308.34 38.2602C310.233 38.6595 312.126 39.1285 313.973 39.6539C333.857 45.3024 350.702 58.1738 361.395 75.8933C373.034 95.176 376.182 118.657 370.028 140.313C364.875 158.452 353.514 174.331 338.036 185.022L333.245 188.312C318.644 198.298 311.988 202.849 307.383 214.833C306.236 217.799 304.47 220.393 302.266 222.491C302.194 223.657 301.997 224.832 301.663 226C301.134 227.87 300.302 229.575 299.228 231.076C299.352 232.914 299.164 234.799 298.635 236.668C297.989 238.937 296.9 240.962 295.48 242.674C295.787 244.877 295.649 247.17 295.005 249.44C293.634 254.272 290.159 258.018 285.791 259.971C280.461 264.978 272.702 267.097 265.358 265.01L236.733 256.879" fill="white"/>
<path d="M266.413 251.031L243.184 244.431C237.681 242.868 234.486 237.14 236.052 231.637L244.776 200.922C246.339 195.418 252.068 192.226 257.572 193.789L280.8 200.389C286.304 201.952 289.498 207.68 287.935 213.183L279.209 243.898C277.646 249.402 271.916 252.594 266.413 251.031" fill="#8D8382"/>
<path d="M349.636 82.9901C339.831 66.7454 324.144 55.6349 305.505 51.7004C272.978 44.8409 239.734 63.1555 228.175 94.3039C222.031 110.867 222.495 128.865 229.475 144.987C230.362 147.025 231.221 148.973 232.047 150.843C239.512 167.762 244.019 177.972 240.864 194.658C240.167 198.385 242.384 201.975 246.021 203.009L285.782 214.304C289.419 215.338 293.193 213.451 294.563 209.906C300.705 193.931 310.026 187.555 325.47 176.991L330.229 173.721C343.091 164.839 352.531 151.642 356.818 136.561C361.932 118.551 359.317 99.0276 349.636 82.9901Z" fill="#FFC50C"/>
<path d="M277.986 67.3443C270.485 65.0992 263.216 70.1638 257.638 74.6106C251.984 79.1215 247.23 84.7096 243.749 91.0644C235.867 105.454 236.036 121.601 242.904 136.265C243.504 137.546 245.181 136.553 245.004 135.378C242.99 121.876 246.433 106.753 254.014 95.3907C257.167 90.667 261.361 86.3652 265.972 83.0503C270.795 79.5829 276.523 77.4546 280.073 72.4673C281.42 70.5706 279.979 67.9395 277.986 67.3443" fill="white"/>
<path d="M286.061 218.515L243.567 206.442C241.802 205.941 240.013 206.8 239.57 208.36V208.361C239.125 209.921 240.197 211.592 241.96 212.093L284.458 224.167C286.221 224.666 288.008 223.808 288.453 222.248V222.246C288.895 220.687 287.826 219.016 286.061 218.515" fill="#504742"/>
<path d="M283.032 229.185L240.534 217.11C238.771 216.611 236.982 217.47 236.538 219.029C236.095 220.589 237.165 222.259 238.93 222.76L281.426 234.835C283.19 235.334 284.978 234.475 285.42 232.916C285.865 231.356 284.793 229.686 283.032 229.185Z" fill="#504742"/>
<path d="M279.403 241.955L236.907 229.882C235.144 229.379 233.354 230.238 232.912 231.797C232.467 233.357 233.539 235.029 235.302 235.53L277.8 247.603C279.561 248.106 281.35 247.245 281.795 245.686C282.237 244.124 281.168 242.456 279.403 241.955" fill="#504742"/>
<path d="M283.795 28.0858L245.695 12.1425L254.502 3.942L283.795 28.0858Z" fill="#FFC50C"/>
<path d="M290.756 27.2044L281.047 8.38697L294.433 5.97993L290.756 27.2044Z" fill="#FFC50C"/>
<path d="M299.23 26.1591L311.423 -3.35008e-05L320.375 7.07791L299.23 26.1591Z" fill="#FFC50C"/>
</svg>
